/vscmnt/brussel_pixiu_data/_data_brussel/112/vsc11236/PredSimResults/SUBJ06mtu3D/worker6.mot
version=1
nRows=5
nColumns=50
inDegrees=yes
endheader
                time	         pelvis_tilt	         pelvis_list	     pelvis_rotation	           pelvis_tx	           pelvis_ty	           pelvis_tz	       hip_flexion_r	     hip_adduction_r	      hip_rotation_r	        knee_angle_r	       ankle_angle_r	         mtp_angle_r	       hip_flexion_l	     hip_adduction_l	      hip_rotation_l	        knee_angle_l	       ankle_angle_l	         mtp_angle_l	    lumbar_extension	      lumbar_bending	     lumbar_rotation	 ercspn_r/activation	 intobl_r/activation	 extobl_r/activation	    abd_r/activation	    add_r/activation	hamstrings_r/activation	bifemsh_r/activation	glut_max_r/activation	iliopsoas_r/activation	rect_fem_r/activation	  vasti_r/activation	gastroc_r/activation	 soleus_r/activation	tib_ant_r/activation	 ercspn_l/activation	 intobl_l/activation	 extobl_l/activation	    abd_l/activation	    add_l/activation	hamstrings_l/activation	bifemsh_l/activation	glut_max_l/activation	iliopsoas_l/activation	rect_fem_l/activation	  vasti_l/activation	gastroc_l/activation	 soleus_l/activation	tib_ant_l/activation	
          0.62073030	         -6.46548387	          1.21113131	         -4.63467806	          0.69521794	          0.93282012	          0.01112108	        -11.19441805	         -0.43269380	         -3.42167389	         -8.85882097	          5.91510240	         35.09798433	         30.27712979	         -0.21452116	         -4.42636556	         -4.68548327	          0.71665949	          0.23603075	         -5.47053982	          0.09437722	          2.43737342	          0.11460367	          0.00999999	          0.00999999	          0.06414176	          0.01000003	          0.01000042	          0.13492657	          0.04300880	          0.49989021	          0.02560796	          0.01000004	          0.35500774	          0.30487436	          0.02020230	          0.15673544	          0.13738335	          0.00999999	          0.00999999	          0.27080242	          0.15266260	          0.23417138	          0.03591551	          0.16155274	          0.01000001	          0.00999999	          0.02274458	          0.00999999	          0.40592457	
          0.63314491	         -6.55460721	          1.13527271	         -4.64406140	          0.71201608	          0.93100413	          0.01028195	        -11.50461034	         -0.49459640	         -3.88046172	         -9.93921713	          5.00325069	         36.90358622	         30.48183353	         -0.13210011	         -4.24821775	         -6.64310060	          0.34491290	          0.20209210	         -5.13804206	         -0.17055586	          2.89172251	          0.11626772	          0.00999999	          0.00999999	          0.05314543	          0.01000339	          0.01556411	          0.11179504	          0.03563547	          0.49541932	          0.02121779	          0.02539955	          0.32671140	          0.28906939	          0.01673886	          0.12986505	          0.11546091	          0.00999999	          0.00999999	          0.22437664	          0.14633400	          0.19402555	          0.07225169	          0.13385648	          0.01000000	          0.00999999	          0.01884530	          0.01324029	          0.43615231	
          0.64555952	         -6.62461830	          1.08213583	         -4.62138312	          0.72915879	          0.92944459	          0.00933379	        -11.64619936	         -0.60643357	         -4.34747752	        -11.37134918	          3.95600970	         38.74616973	         30.47584313	         -0.06447627	         -4.07300946	         -8.36757422	          0.00404238	          0.19284968	         -4.79217561	         -0.46216047	          3.32390580	          0.10409490	          0.00999999	          0.00999999	          0.04403429	          0.01000001	          0.01289648	          0.09262914	          0.02952620	          0.49285971	          0.01758026	          0.02121774	          0.29051326	          0.26769655	          0.01386919	          0.13767502	          0.09566654	          0.01000000	          0.06468851	          0.21234632	          0.13434327	          0.16076223	          0.08835182	          0.11090841	          0.00999999	          0.00999999	          0.01561450	          0.01097041	          0.53123748	
          0.65797412	         -6.67507024	          1.02851247	         -4.56651125	          0.74640700	          0.92825368	          0.00826441	        -11.53567543	         -0.75123261	         -4.82652184	        -13.27838376	          2.75933660	         40.57658054	         30.34488332	          0.00637427	         -3.97862313	         -9.87810311	         -0.49583854	          0.16966476	         -4.46492958	         -0.75273413	          3.72605409	          0.13472112	          0.00999999	          0.00999999	          0.03648515	          0.01061993	          0.03075246	          0.07674900	          0.02446429	          0.47706573	          0.01456634	          0.01758022	          0.24070828	          0.24343693	          0.01149148	          0.14755395	          0.07926567	          0.00999999	          0.12186466	          0.26656117	          0.12421038	          0.13320149	          0.12061903	          0.09189451	          0.00999999	          0.00999999	          0.01293759	          0.00999999	          0.57780076	
          0.67038873	         -6.70419266	          0.98499161	         -4.48772457	          0.76357898	          0.92752663	          0.00709408	        -11.10738274	         -0.95002699	         -5.31785747	        -15.75040817	          1.40371436	         42.27915757	         30.17136473	          0.09237173	         -3.92759356	        -11.38311773	         -0.76865479	          0.13339689	         -4.17277254	         -1.05405635	          4.09719780	          0.17355275	          0.00999999	          0.00999999	          0.03023021	          0.07492730	          0.02548133	          0.06359132	          0.02027019	          0.44680973	          0.01206912	          0.01456631	          0.19944177	          0.20339147	          0.00999999	          0.15521601	          0.06567653	          0.00999999	          0.17051557	          0.28899927	          0.11234961	          0.11036572	          0.18632485	          0.07614031	          0.00999999	          0.02090090	          0.01071959	          0.00999999	          0.59738658	
